<svg width="512" height="512" viewBox="0 0 512 512" fill="none" xmlns="http://www.w3.org/2000/svg">
  <defs>
    <linearGradient id="bg" x1="96" y1="72" x2="432" y2="456" gradientUnits="userSpaceOnUse">
      <stop offset="0" stop-color="#182019"/>
      <stop offset="1" stop-color="#0D110F"/>
    </linearGradient>
    <linearGradient id="surface" x1="124" y1="108" x2="390" y2="390" gradientUnits="userSpaceOnUse">
      <stop offset="0" stop-color="#1F2820"/>
      <stop offset="1" stop-color="#131815"/>
    </linearGradient>
    <linearGradient id="accent" x1="92" y1="112" x2="156" y2="112" gradientUnits="userSpaceOnUse">
      <stop offset="0" stop-color="#8CF34D"/>
      <stop offset="1" stop-color="#51912B"/>
    </linearGradient>
    <radialGradient id="glow" cx="0" cy="0" r="1" gradientUnits="userSpaceOnUse" gradientTransform="translate(184 126) rotate(49.1849) scale(250.581)">
      <stop stop-color="#8CF34D" stop-opacity="0.18"/>
      <stop offset="1" stop-color="#8CF34D" stop-opacity="0"/>
    </radialGradient>
    <filter id="shadow" x="36" y="42" width="440" height="458" filterUnits="userSpaceOnUse" color-interpolation-filters="sRGB">
      <feFlood flood-opacity="0" result="BackgroundImageFix"/>
      <feColorMatrix in="SourceAlpha" type="matrix" values="0 0 0 0 0 0 0 0 0 0 0 0 0 0 0 0 0 0 127 0" result="hardAlpha"/>
      <feOffset dy="18"/>
      <feGaussianBlur stdDeviation="20"/>
      <feComposite in2="hardAlpha" operator="out"/>
      <feColorMatrix type="matrix" values="0 0 0 0 0.0196078 0 0 0 0 0.027451 0 0 0 0 0.0235294 0 0 0 0.38 0"/>
      <feBlend mode="normal" in2="BackgroundImageFix" result="effect1_dropShadow_1_1"/>
      <feBlend mode="normal" in="SourceGraphic" in2="effect1_dropShadow_1_1" result="shape"/>
    </filter>
    <clipPath id="clip">
      <rect x="76" y="76" width="360" height="360" rx="88"/>
    </clipPath>
  </defs>

  <g filter="url(#shadow)">
    <rect x="76" y="76" width="360" height="360" rx="88" fill="url(#bg)"/>
    <rect x="76" y="76" width="360" height="360" rx="88" fill="url(#glow)"/>
    <g clip-path="url(#clip)">
      <rect x="92" y="112" width="18" height="288" rx="9" fill="url(#accent)"/>
      <rect x="120" y="104" width="288" height="304" rx="64" fill="url(#surface)" stroke="#263025" stroke-width="2"/>
      <path d="M182 314H246C260.359 314 272 302.359 272 288V287C272 272.641 283.641 261 298 261H336" stroke="#8E9789" stroke-width="28" stroke-linecap="round" stroke-linejoin="round"/>
      <path d="M182 258H224C238.359 258 250 246.359 250 232C250 217.641 261.641 206 276 206H336" stroke="#6F776B" stroke-width="28" stroke-linecap="round" stroke-linejoin="round"/>
      <path d="M182 202H210C224.359 202 236 190.359 236 176C236 161.641 247.641 150 262 150H336" stroke="#596155" stroke-width="28" stroke-linecap="round" stroke-linejoin="round"/>
      <circle cx="224" cy="232" r="74" fill="#0F1511" stroke="#8CF34D" stroke-width="20"/>
      <circle cx="224" cy="232" r="33" fill="#8CF34D"/>
      <path d="M273 282L329 338" stroke="#8CF34D" stroke-width="26" stroke-linecap="round"/>
      <circle cx="336" cy="345" r="14" fill="#8CF34D"/>
    </g>
  </g>
</svg>
